<svg width="32" height="32" viewBox="0 0 32 32" fill="none" xmlns="http://www.w3.org/2000/svg">
<path d="M25.4268 6.57334C23.2391 4.37134 20.3517 3.00162 17.2623 2.70033C14.173 2.39903 11.0753 3.18504 8.50334 4.92285C5.93139 6.66065 4.04634 9.24135 3.17318 12.22C2.30001 15.1987 2.49346 18.3887 3.72016 21.24C3.84801 21.505 3.88996 21.8033 3.84016 22.0933L2.66682 27.7333C2.62162 27.9496 2.63085 28.1737 2.69369 28.3854C2.75653 28.5972 2.871 28.7901 3.02682 28.9467C3.15456 29.0735 3.30666 29.1731 3.47394 29.2396C3.64122 29.306 3.82022 29.3379 4.00016 29.3333H4.26682L9.97349 28.1867C10.2635 28.1518 10.5577 28.1932 10.8268 28.3067C13.6782 29.5334 16.8681 29.7268 19.8468 28.8537C22.8255 27.9805 25.4062 26.0954 27.144 23.5235C28.8818 20.9515 29.6678 17.8539 29.3665 14.7645C29.0652 11.6752 27.6955 8.78772 25.4935 6.6L25.4268 6.57334ZM10.6668 17.3333C10.4031 17.3333 10.1453 17.2551 9.92606 17.1086C9.7068 16.9621 9.5359 16.7539 9.43498 16.5102C9.33407 16.2666 9.30766 15.9985 9.35911 15.7399C9.41056 15.4812 9.53755 15.2437 9.72402 15.0572C9.91049 14.8707 10.1481 14.7437 10.4067 14.6923C10.6653 14.6408 10.9334 14.6672 11.1771 14.7682C11.4207 14.8691 11.6289 15.04 11.7754 15.2592C11.922 15.4785 12.0002 15.7363 12.0002 16C12.0002 16.3536 11.8597 16.6928 11.6096 16.9428C11.3596 17.1929 11.0204 17.3333 10.6668 17.3333V17.3333ZM16.0002 17.3333C15.7364 17.3333 15.4787 17.2551 15.2594 17.1086C15.0401 16.9621 14.8692 16.7539 14.7683 16.5102C14.6674 16.2666 14.641 15.9985 14.6924 15.7399C14.7439 15.4812 14.8709 15.2437 15.0573 15.0572C15.2438 14.8707 15.4814 14.7437 15.74 14.6923C15.9987 14.6408 16.2668 14.6672 16.5104 14.7682C16.754 14.8691 16.9623 15.04 17.1088 15.2592C17.2553 15.4785 17.3335 15.7363 17.3335 16C17.3335 16.3536 17.193 16.6928 16.943 16.9428C16.6929 17.1929 16.3538 17.3333 16.0002 17.3333ZM21.3335 17.3333C21.0698 17.3333 20.812 17.2551 20.5927 17.1086C20.3735 16.9621 20.2026 16.7539 20.1017 16.5102C20.0007 16.2666 19.9743 15.9985 20.0258 15.7399C20.0772 15.4812 20.2042 15.2437 20.3907 15.0572C20.5772 14.8707 20.8147 14.7437 21.0734 14.6923C21.332 14.6408 21.6001 14.6672 21.8437 14.7682C22.0874 14.8691 22.2956 15.04 22.4421 15.2592C22.5886 15.4785 22.6668 15.7363 22.6668 16C22.6668 16.3536 22.5263 16.6928 22.2763 16.9428C22.0263 17.1929 21.6871 17.3333 21.3335 17.3333Z" fill="#9B3737"/>
</svg>
