<svg width="32" height="32" viewBox="0 0 32 32" fill="none" xmlns="http://www.w3.org/2000/svg">
<path d="M13.333 18.6667H18.6663V28H13.333V18.6667Z" fill="#9B3737"/>
<path d="M27.2268 13.5733L16.9468 3.06667C16.8229 2.9417 16.6754 2.84251 16.5129 2.77481C16.3504 2.70712 16.1762 2.67227 16.0002 2.67227C15.8241 2.67227 15.6499 2.70712 15.4874 2.77481C15.3249 2.84251 15.1774 2.9417 15.0535 3.06667L4.77349 13.5867C4.52474 13.8374 4.32828 14.1351 4.19552 14.4624C4.06277 14.7897 3.99636 15.1401 4.00015 15.4933V26.6667C3.99912 27.3492 4.25985 28.0062 4.72865 28.5023C5.19746 28.9984 5.83863 29.2958 6.52015 29.3333H10.6668V17.3333C10.6668 16.9797 10.8073 16.6406 11.0573 16.3905C11.3074 16.1405 11.6465 16 12.0002 16H20.0002C20.3538 16 20.6929 16.1405 20.943 16.3905C21.193 16.6406 21.3335 16.9797 21.3335 17.3333V29.3333H25.4802C26.1617 29.2958 26.8029 28.9984 27.2717 28.5023C27.7405 28.0062 28.0012 27.3492 28.0002 26.6667V15.4933C28.0012 14.7772 27.7239 14.0888 27.2268 13.5733V13.5733Z" fill="#9B3737"/>
</svg>
